<svg width="29" height="56" viewBox="0 0 29 56" fill="none" xmlns="http://www.w3.org/2000/svg">
<path d="M9.21775 55.5V39H0.991394L10.7945 14.25H18.6781L28.4126 39H20.1862V55.5H9.21775ZM14.702 11.5C13.1938 11.5 11.9032 10.961 10.8301 9.883C9.75521 8.80683 9.21775 7.5125 9.21775 6C9.21775 4.4875 9.75521 3.19225 10.8301 2.11425C11.9032 1.03808 13.1938 0.5 14.702 0.5C16.2102 0.5 17.5017 1.03808 18.5766 2.11425C19.6497 3.19225 20.1862 4.4875 20.1862 6C20.1862 7.5125 19.6497 8.80683 18.5766 9.883C17.5017 10.961 16.2102 11.5 14.702 11.5Z" fill="#3B8457"/>
</svg>
