<svg width="807" height="818" viewBox="0 0 807 818" fill="none" xmlns="http://www.w3.org/2000/svg">
<rect width="807" height="272.364" fill="#B94429"/>
<rect x="-0.000427246" y="272.362" width="807" height="272.364" fill="#F5F5DA"/>
<rect x="-0.000427246" y="544.724" width="807" height="272.364" fill="#3B8457"/>
<path d="M401.407 197.785C401.932 195.581 405.068 195.581 405.593 197.785L422.546 268.932C422.995 270.816 425.51 271.194 426.493 269.526L463.614 206.551C464.765 204.599 467.762 205.522 467.616 207.783L462.892 280.786C462.767 282.718 465.058 283.82 466.489 282.515L520.483 233.302C522.158 231.777 524.749 233.54 523.945 235.658L497.957 304.033C497.269 305.842 499.133 307.568 500.885 306.745L566.962 275.665C569.011 274.702 570.967 277.15 569.575 278.936L524.627 336.604C523.438 338.13 524.709 340.328 526.625 340.058L598.919 329.879C601.161 329.564 602.307 332.479 600.451 333.775L540.536 375.606C538.95 376.713 539.516 379.187 541.425 379.495L613.51 391.127C615.745 391.488 615.98 394.611 613.824 395.301L544.27 417.573C542.428 418.162 542.238 420.693 543.971 421.551L609.438 453.965C611.467 454.969 610.768 458.022 608.505 458.045L535.499 458.779C533.565 458.799 532.636 461.161 534.039 462.492L587.063 512.805C588.706 514.363 587.137 517.075 584.967 516.428L515 495.565C513.146 495.012 511.561 496.996 512.51 498.683L548.378 562.417C549.489 564.391 547.189 566.521 545.306 565.262L484.593 524.662C482.984 523.586 480.883 525.016 481.294 526.907L496.822 598.395C497.303 600.609 494.477 601.967 493.049 600.209L446.977 543.482C445.756 541.978 443.326 542.727 443.162 544.657L436.978 617.545C436.787 619.802 433.685 620.269 432.838 618.167L405.496 550.35C404.772 548.554 402.228 548.554 401.504 550.35L374.162 618.167C373.315 620.269 370.213 619.802 370.022 617.545L363.838 544.657C363.674 542.727 361.244 541.979 360.023 543.482L313.951 600.209C312.523 601.967 309.697 600.609 310.178 598.395L325.706 526.907C326.117 525.016 324.016 523.586 322.407 524.662L261.694 565.262C259.811 566.521 257.511 564.391 258.622 562.417L294.49 498.683C295.439 496.996 293.854 495.012 292 495.565L222.033 516.428C219.863 517.075 218.294 514.363 219.937 512.805L272.961 462.492C274.364 461.161 273.435 458.799 271.501 458.779L198.495 458.045C196.232 458.022 195.533 454.969 197.562 453.965L263.029 421.551C264.762 420.693 264.572 418.162 262.73 417.573L193.176 395.301C191.02 394.611 191.255 391.488 193.49 391.127L265.575 379.495C267.484 379.187 268.05 376.713 266.464 375.606L206.549 333.775C204.693 332.479 205.839 329.564 208.081 329.879L280.375 340.058C282.291 340.328 283.562 338.13 282.372 336.604L237.425 278.936C236.033 277.15 237.989 274.702 240.038 275.665L306.115 306.745C307.867 307.568 309.731 305.842 309.043 304.033L283.055 235.658C282.251 233.54 284.842 231.777 286.517 233.302L340.511 282.515C341.942 283.82 344.233 282.718 344.108 280.786L339.384 207.783C339.238 205.522 342.235 204.599 343.386 206.551L380.507 269.526C381.49 271.194 384.005 270.816 384.454 268.932L401.407 197.785Z" fill="#F3B73E"/>
</svg>
