<svg width="22" height="56" viewBox="0 0 22 56" fill="none" xmlns="http://www.w3.org/2000/svg">
<path d="M8.22636 55.5C7.44943 55.5 6.79863 55.236 6.27397 54.708C5.74749 54.1818 5.48424 53.5292 5.48424 52.75V36.25H2.74212C1.96519 36.25 1.31439 35.986 0.789731 35.458C0.263244 34.9318 0 34.2792 0 33.5V19.75C0 18.2375 0.537457 16.9423 1.61237 15.8643C2.68545 14.7881 3.97608 14.25 5.48424 14.25H16.4527C17.9609 14.25 19.2524 14.7881 20.3273 15.8643C21.4004 16.9423 21.937 18.2375 21.937 19.75V33.5C21.937 34.2792 21.6746 34.9318 21.15 35.458C20.6235 35.986 19.9718 36.25 19.1948 36.25H16.4527V52.75C16.4527 53.5292 16.1904 54.1818 15.6657 54.708C15.1392 55.236 14.4875 55.5 13.7106 55.5H8.22636ZM10.9685 11.5C9.46032 11.5 8.16969 10.961 7.09661 9.883C6.0217 8.80683 5.48424 7.5125 5.48424 6C5.48424 4.4875 6.0217 3.19225 7.09661 2.11425C8.16969 1.03808 9.46032 0.5 10.9685 0.5C12.4766 0.5 13.7682 1.03808 14.8431 2.11425C15.9162 3.19225 16.4527 4.4875 16.4527 6C16.4527 7.5125 15.9162 8.80683 14.8431 9.883C13.7682 10.961 12.4766 11.5 10.9685 11.5Z" fill="#3B8457"/>
</svg>
