<svg width="55" height="37" viewBox="0 0 55 37" fill="none" xmlns="http://www.w3.org/2000/svg">
<mask id="mask0_167_2" style="mask-type:luminance" maskUnits="userSpaceOnUse" x="0" y="0" width="55" height="37">
<path d="M0 0H54.4097V37H0V0Z" fill="white"/>
</mask>
<g mask="url(#mask0_167_2)">
<path fill-rule="evenodd" clip-rule="evenodd" d="M0 0V37H54.4097V0H0Z" fill="#3A457A"/>
<mask id="mask1_167_2" style="mask-type:luminance" maskUnits="userSpaceOnUse" x="0" y="0" width="55" height="37">
<path fill-rule="evenodd" clip-rule="evenodd" d="M0 0V37H54.4097V0H0Z" fill="white"/>
</mask>
<g mask="url(#mask1_167_2)">
<mask id="mask2_167_2" style="mask-type:luminance" maskUnits="userSpaceOnUse" x="0" y="0" width="55" height="37">
<path d="M0 0H54.4097V37H0V0Z" fill="white"/>
</mask>
<g mask="url(#mask2_167_2)">
<path d="M-6.05817 34.3561L5.91538 38.9487L54.6801 4.99193L60.9967 -1.83149L48.1934 -3.36545L28.3033 11.2665L12.2932 21.127L-6.05817 34.3561Z" fill="#F5F5DA"/>
<path d="M-4.42078 37.5735L1.68162 40.2375L58.7285 -2.46511H50.1641L-4.41908 37.572L-4.42078 37.5735Z" fill="#B94429"/>
<path d="M60.4679 34.3561L48.4944 38.9487L-0.270344 4.99193L-6.58698 -1.83149L6.21632 -3.36545L26.1065 11.2665L42.1165 21.127L60.4679 34.3561Z" fill="#F5F5DA"/>
<path d="M60.0599 36.6655L53.9592 39.3295L29.6686 21.0453L22.4661 19.0041L-7.19568 -1.80836H1.37045L31.0136 18.5108L38.8877 20.959L60.0599 36.6655Z" fill="#B94429"/>
<path fill-rule="evenodd" clip-rule="evenodd" d="M33.6286 -3.08332H20.7811V12.3333H-3.353V24.6667H20.7811V40.0833H33.6286V24.6667H57.858V12.3333H33.6286V-3.08332Z" fill="#B94429"/>
<mask id="mask3_167_2" style="mask-type:luminance" maskUnits="userSpaceOnUse" x="-4" y="-4" width="62" height="45">
<path fill-rule="evenodd" clip-rule="evenodd" d="M33.6286 -3.08332H20.7811V12.3333H-3.353V24.6667H20.7811V40.0833H33.6286V24.6667H57.858V12.3333H33.6286V-3.08332Z" fill="white"/>
</mask>
<g mask="url(#mask3_167_2)">
<path d="M20.7811 -3.08332V-6.16666H17.3805V-3.08332H20.7811ZM33.6286 -3.08332H37.0292V-6.16666H33.6286V-3.08332ZM20.7811 12.3333V15.4167H24.1817V12.3333H20.7811ZM-3.35299 12.3333V9.25001H-6.7536V12.3333H-3.35299ZM-3.35299 24.6667H-6.7536V27.75H-3.35299V24.6667ZM20.7811 24.6667H24.1817V21.5833H20.7811V24.6667ZM20.7811 40.0833H17.3805V43.1667H20.7811V40.0833ZM33.6286 40.0833V43.1667H37.0292V40.0833H33.6286ZM33.6286 24.6667V21.5833H30.228V24.6667H33.6286ZM57.858 24.6667V27.75H61.2586V24.6667H57.858ZM57.858 12.3333H61.2586V9.25001H57.858V12.3333ZM33.6286 12.3333H30.228V15.4167H33.6286V12.3333ZM20.7811 1.04904e-05H33.6286V-6.16666H20.7811V1.04904e-05ZM24.1817 12.3333V-3.08332H17.3805V12.3333H24.1817ZM-3.35299 15.4167H20.7811V9.25001H-3.35299V15.4167ZM0.047616 24.6667V12.3333H-6.7536V24.6667H0.047616ZM20.7811 21.5833H-3.35299V27.75H20.7811V21.5833ZM24.1817 40.0833V24.6667H17.3805V40.0833H24.1817ZM33.6286 37H20.7811V43.1667H33.6286V37ZM30.228 24.6667V40.0833H37.0292V24.6667H30.228ZM57.858 21.5833H33.6286V27.75H57.858V21.5833ZM54.4574 12.3333V24.6667H61.2586V12.3333H54.4574ZM33.6286 15.4167H57.858V9.25001H33.6286V15.4167ZM30.228 -3.08332V12.3333H37.0292V-3.08332H30.228Z" fill="#F5F5DA"/>
</g>
</g>
</g>
</g>
</svg>
