<svg width="59" height="42" viewBox="0 0 59 42" fill="none" xmlns="http://www.w3.org/2000/svg">
<g clip-path="url(#clip0_77_66)">
<mask id="mask0_77_66" style="mask-type:luminance" maskUnits="userSpaceOnUse" x="2" y="2" width="55" height="38">
<path d="M2.00014 2.5H56.4099V39.5H2.00014V2.5Z" fill="white"/>
</mask>
<g mask="url(#mask0_77_66)">
<path fill-rule="evenodd" clip-rule="evenodd" d="M2.00014 2.5V39.5H56.4099V2.5H2.00014Z" fill="#3A457A"/>
<mask id="mask1_77_66" style="mask-type:luminance" maskUnits="userSpaceOnUse" x="2" y="2" width="55" height="38">
<path fill-rule="evenodd" clip-rule="evenodd" d="M2.00014 2.5V39.5H56.4099V2.5H2.00014Z" fill="white"/>
</mask>
<g mask="url(#mask1_77_66)">
<mask id="mask2_77_66" style="mask-type:luminance" maskUnits="userSpaceOnUse" x="2" y="2" width="55" height="38">
<path d="M2.00014 2.5H56.4099V39.5H2.00014V2.5Z" fill="white"/>
</mask>
<g mask="url(#mask2_77_66)">
<path d="M-4.05804 36.8561L7.9155 41.4487L56.6802 7.49193L62.9969 0.66851L50.1936 -0.865448L30.3034 13.7665L14.2933 23.627L-4.05804 36.8561Z" fill="#F5F5DA"/>
<path d="M-2.42065 40.0735L3.68174 42.7375L60.7286 0.0348816H52.1642L-2.41895 40.072L-2.42065 40.0735Z" fill="#B94429"/>
<path d="M62.4681 36.8561L50.4945 41.4487L1.72979 7.49193L-4.58684 0.66851L8.21645 -0.865448L28.1066 13.7665L44.1167 23.627L62.4681 36.8561Z" fill="#F5F5DA"/>
<path d="M62.06 39.1655L55.9593 41.8295L31.6688 23.5453L24.4663 21.5041L-5.19555 0.691635H3.37058L33.0137 21.0108L40.8878 23.459L62.06 39.1655Z" fill="#B94429"/>
<path fill-rule="evenodd" clip-rule="evenodd" d="M35.6288 -0.583328H22.7813V14.8333H-1.35286V27.1667H22.7813V42.5833H35.6288V27.1667H59.8581V14.8333H35.6288V-0.583328Z" fill="#B94429"/>
<mask id="mask3_77_66" style="mask-type:luminance" maskUnits="userSpaceOnUse" x="-2" y="-1" width="62" height="44">
<path fill-rule="evenodd" clip-rule="evenodd" d="M35.6288 -0.583328H22.7813V14.8333H-1.35286V27.1667H22.7813V42.5833H35.6288V27.1667H59.8581V14.8333H35.6288V-0.583328Z" fill="white"/>
</mask>
<g mask="url(#mask3_77_66)">
<path d="M22.7813 -0.583323V-3.66666H19.3807V-0.583323H22.7813ZM35.6288 -0.583323H39.0294V-3.66666H35.6288V-0.583323ZM22.7813 14.8333V17.9167H26.1819V14.8333H22.7813ZM-1.35286 14.8333V11.75H-4.75346V14.8333H-1.35286ZM-1.35286 27.1667H-4.75346V30.25H-1.35286V27.1667ZM22.7813 27.1667H26.1819V24.0833H22.7813V27.1667ZM22.7813 42.5833H19.3807V45.6667H22.7813V42.5833ZM35.6288 42.5833V45.6667H39.0294V42.5833H35.6288ZM35.6288 27.1667V24.0833H32.2282V27.1667H35.6288ZM59.8581 27.1667V30.25H63.2587V27.1667H59.8581ZM59.8581 14.8333H63.2587V11.75H59.8581V14.8333ZM35.6288 14.8333H32.2282V17.9167H35.6288V14.8333ZM22.7813 2.50001H35.6288V-3.66666H22.7813V2.50001ZM26.1819 14.8333V-0.583323H19.3807V14.8333H26.1819ZM-1.35286 17.9167H22.7813V11.75H-1.35286V17.9167ZM2.04775 27.1667V14.8333H-4.75346V27.1667H2.04775ZM22.7813 24.0833H-1.35286V30.25H22.7813V24.0833ZM26.1819 42.5833V27.1667H19.3807V42.5833H26.1819ZM35.6288 39.5H22.7813V45.6667H35.6288V39.5ZM32.2282 27.1667V42.5833H39.0294V27.1667H32.2282ZM59.8581 24.0833H35.6288V30.25H59.8581V24.0833ZM56.4575 14.8333V27.1667H63.2587V14.8333H56.4575ZM35.6288 17.9167H59.8581V11.75H35.6288V17.9167ZM32.2282 -0.583323V14.8333H39.0294V-0.583323H32.2282Z" fill="#F5F5DA"/>
</g>
</g>
</g>
</g>
</g>
<rect x="1" y="1.5" width="56.41" height="39" stroke="#F3B73E" stroke-width="2"/>
<defs>
<clipPath id="clip0_77_66">
<rect x="2" y="2.5" width="54.41" height="37" fill="white"/>
</clipPath>
</defs>
</svg>
